<svg xmlns="http://www.w3.org/2000/svg" viewBox="0 0 256 256">
  <rect width="256" height="256" fill="#FFF9F0"/>
  <ellipse cx="128" cy="100" rx="55" ry="12" fill="#FFE5E5"/>
  <path d="M73 100 L73 160 Q73 180 93 185 L163 185 Q183 180 183 160 L183 100 Z" fill="#FFFBF5"/>
  <path d="M73 100 L73 160 Q73 180 93 185 L163 185 Q183 180 183 160 L183 100 Z" fill="none" stroke="#FFE5E5" stroke-width="3"/>
  <ellipse cx="128" cy="100" rx="55" ry="12" fill="#FFF9F0" stroke="#FFE5E5" stroke-width="3"/>
  <path d="M128 95 Q128 80 140 75 Q145 73 148 78 Q150 82 148 88 L140 115 Q138 122 132 122 Q126 122 124 115 Z" fill="#B8E6D5"/>
  <circle cx="190" cy="70" r="8" fill="#FFB5C5"/>
  <path d="M190 78 Q188 85 188 92 Q188 98 190 102" fill="none" stroke="#FFB5C5" stroke-width="3" stroke-linecap="round"/>
</svg>